<svg xmlns="http://www.w3.org/2000/svg" width="1120" height="1120" viewBox="0 0 1120 1120" version="1.1"><path d="M 105.500 440.833 C 87.040 449.670, 90.011 475.461, 110 479.902 C 132.197 484.833, 144.022 451.854, 123.806 441.400 C 118.846 438.835, 110.231 438.568, 105.500 440.833 M 298.759 646.412 C 283.074 652.056, 280.462 670.659, 294.088 679.677 L 298.354 682.500 458.427 682.777 C 636.198 683.084, 620.989 683.523, 627.368 677.907 C 638.396 668.200, 637.084 654.127, 624.500 647.161 C 620.366 644.872, 305.053 644.148, 298.759 646.412 M 839.123 645.986 C 821.871 650.141, 817.813 670.948, 832.409 680.412 L 836.400 683 925.504 683 L 1014.608 683 1019.151 680.119 C 1032.141 671.881, 1031.828 654.451, 1018.561 647.178 C 1015.198 645.335, 846.481 644.214, 839.123 645.986" stroke="none" fill="#e26925" fill-rule="evenodd"/><path d="M 277.500 433.900 C 265.256 437.170, 256.153 446.244, 253.229 458.093 C 251.164 466.460, 250.356 671.840, 252.371 676.086 C 256.165 684.081, 266.626 685.610, 273.118 679.118 L 277 675.235 277 598.748 L 277 522.261 290.656 521.798 L 304.312 521.335 307.102 518.212 C 317.228 506.879, 309.515 497, 290.542 497 L 278.236 497 277.806 483.750 C 277.077 461.290, 278.627 458.833, 294.036 458.022 C 308.378 457.267, 314.266 449.638, 308.147 439.738 C 304.683 434.133, 288.307 431.013, 277.500 433.900 M 321.799 436.729 C 315.611 440.566, 315.863 436.599, 316.196 525 L 316.500 605.500 318.876 610.757 C 328.617 632.308, 367.686 632.610, 377.751 611.213 C 379.582 607.319, 381.102 464.906, 379.480 449.198 C 378.315 437.909, 368.746 432.460, 358.967 437.517 C 352.504 440.859, 352.784 436.866, 352.635 527.923 C 352.496 612.931, 352.463 613.595, 348.316 614.635 C 342.228 616.164, 342.012 612.999, 342.006 521.973 C 341.999 434.608, 342.364 439.791, 335.989 436.494 C 332.175 434.522, 325.170 434.638, 321.799 436.729 M 886.994 439.883 C 867.159 446.322, 865.004 470.518, 883.500 479.100 C 903.246 488.262, 921.424 464.912, 908.304 447.241 C 904.013 441.461, 893.410 437.800, 886.994 439.883 M 557.373 497.979 C 497.314 513.725, 489.063 591.447, 544.500 619.237 C 575.159 634.607, 629.488 618.248, 618.479 596.960 C 614.468 589.204, 606.921 588.495, 594.940 594.750 L 585.841 599.500 574.155 599.500 C 555.376 599.500, 535 584.962, 535 571.563 C 535 569.609, 610.654 571.066, 614.435 573.093 C 626.220 579.410, 635.005 573.384, 634.979 559 C 634.905 518.379, 596.060 487.836, 557.373 497.979 M 104.321 498.613 C 97.826 501.816, 97.922 500.795, 98.226 563.430 L 98.500 619.956 101.273 622.728 C 105.734 627.188, 117.914 626.899, 122.082 622.234 L 125 618.968 125 561.949 C 125 499.242, 125.239 501.726, 118.901 498.449 C 115.248 496.560, 108.327 496.638, 104.321 498.613 M 145.313 498.102 C 137.657 500.318, 138 497.347, 138 561.412 C 138 624.786, 137.679 621.715, 144.599 624.606 C 151.245 627.383, 160.510 625.501, 163.170 620.835 C 164.192 619.040, 164.616 609.124, 165 578 C 165.477 539.391, 165.598 537.313, 167.589 533.500 C 174.790 519.713, 198.593 519.369, 207.725 532.920 C 211.689 538.801, 211.989 542.193, 211.994 581.173 L 212 618.847 214.543 621.868 C 219.099 627.283, 230.797 627.357, 236.150 622.003 L 239 619.154 239 581.761 C 239 540.361, 238.576 536.118, 233.352 525.178 C 221.862 501.116, 189.426 489.521, 168.367 501.946 L 164.785 504.060 162.515 501.611 C 158.848 497.654, 151.818 496.220, 145.313 498.102 M 396.314 498.950 C 390.537 502.472, 390.527 502.540, 390.190 539.191 C 389.835 577.703, 390.433 584.168, 395.295 594.405 C 408.214 621.609, 440.080 633.121, 466.125 619.992 L 471.751 617.157 472.832 619.530 C 476.441 627.452, 494.017 627.345, 497.045 619.383 C 498.763 614.863, 498.284 504.850, 496.535 502.353 C 493.183 497.568, 484.170 495.648, 477.718 498.345 C 471.331 501.015, 471.550 499.598, 470.981 541.901 C 470.408 584.524, 470.384 584.687, 463.441 592.902 C 454.909 602.998, 436.008 602.965, 426.301 592.838 C 418.729 584.937, 418.565 583.917, 418.003 541.401 C 417.459 500.214, 417.630 501.411, 411.872 498.434 C 407.869 496.364, 400.135 496.621, 396.314 498.950 M 651.942 497.926 C 641.605 501.152, 641.999 498.580, 642.004 562.718 C 642.008 628.713, 641.608 627.192, 658.620 625.782 C 670.615 624.787, 671.201 622.478, 670.837 577.665 C 670.514 537.886, 670.745 536.186, 677.340 529.786 C 689.509 517.977, 712.431 522.228, 720.127 537.723 C 722.471 542.442, 722.506 542.968, 723 581.229 L 723.500 619.958 726.185 622.641 C 731.652 628.104, 745.091 626.593, 748.428 620.140 C 750.947 615.268, 751.203 547.045, 748.736 538.113 C 739.829 505.873, 703.434 487.612, 676.141 501.688 L 670.410 504.644 668.613 502.262 C 665.813 498.550, 657.158 496.298, 651.942 497.926 M 777 498 C 763.658 498.534, 761.752 499.129, 757.608 504.054 C 753.513 508.920, 753.959 514.195, 758.882 519.118 L 762.765 523 793.337 523 L 823.908 523 815.780 533.750 C 807.420 544.808, 773.617 587.938, 766.947 596.059 C 756.425 608.870, 756.111 618.386, 766.039 623.520 C 770.301 625.724, 854.699 625.724, 858.961 623.520 C 867.998 618.847, 869.199 608.234, 861.385 602.088 C 858.830 600.078, 857.630 600, 829.345 600 L 799.960 600 812.699 583.750 C 819.706 574.813, 828.556 563.675, 832.365 559 C 836.175 554.325, 842.264 546.704, 845.896 542.066 C 849.528 537.427, 854.772 530.902, 857.549 527.566 C 868.019 514.988, 869.677 510.015, 865.518 503.668 C 861.417 497.409, 834.640 495.694, 777 498 M 887.464 497.678 C 886.345 497.901, 884.095 499.146, 882.464 500.446 L 879.500 502.810 879.226 559.777 C 879.056 595.226, 879.322 617.717, 879.932 619.320 C 882.621 626.394, 897.666 628.288, 903.080 622.234 L 906 618.968 906 562.389 C 906 511.634, 905.830 505.521, 904.352 503.019 C 901.538 498.255, 894.980 496.181, 887.464 497.678 M 951.500 498.106 C 929.834 500.382, 915.903 516.103, 926.321 526.521 C 931.550 531.750, 935.236 531.918, 945.164 527.377 C 970.187 515.932, 994.696 523.660, 997.912 544.009 L 998.732 549.196 996.116 548.636 C 994.677 548.327, 990.350 547.366, 986.500 546.500 C 947.174 537.649, 917.500 554.001, 917.500 584.521 C 917.500 617.728, 958.339 636.599, 992.138 619.008 C 998.509 615.692, 998.654 615.695, 1000.399 619.136 C 1004.400 627.027, 1020.003 628.503, 1024.638 621.429 C 1026.809 618.117, 1027.061 551.249, 1024.951 538.669 C 1019.844 508.231, 993.519 493.693, 951.500 498.106 M 563 522.368 C 552.865 525.315, 543.063 533.325, 539.015 541.967 C 535.925 548.565, 533.030 548.062, 572.374 547.763 L 607.054 547.500 604.483 542.340 C 596.457 526.237, 578.848 517.759, 563 522.368 M 959.326 569.044 C 948.706 571.144, 944.500 575.671, 944.500 585 C 944.500 611.119, 992.992 604.877, 999.508 577.918 C 1000.832 572.443, 973.105 566.320, 959.326 569.044 M 143 645.982 C 106.920 646.494, 106.457 646.527, 102.741 648.837 C 90.421 656.497, 91.332 674.521, 104.345 680.580 L 109.500 682.980 167.124 682.990 C 216.454 682.999, 225.376 682.778, 229.110 681.461 C 244.332 676.091, 246.177 656.088, 232.177 648.220 C 227.636 645.667, 205.058 645.101, 143 645.982" stroke="none" fill="#103f7b" fill-rule="evenodd"/></svg>